<?xml version="1.0" standalone="no"?>
<!DOCTYPE svg PUBLIC "-//W3C//DTD SVG 20010904//EN"
 "http://www.w3.org/TR/2001/REC-SVG-20010904/DTD/svg10.dtd">
<svg version="1.0" xmlns="http://www.w3.org/2000/svg"
 width="1018.000000pt" height="1018.000000pt" viewBox="0 0 1018.000000 1018.000000"
 preserveAspectRatio="xMidYMid meet">

<g transform="translate(0.000000,1018.000000) scale(0.100000,-0.100000)"
fill="#000000" stroke="none">
<path d="M2660 8863 c0 -5 9 -37 21 -73 43 -136 35 -314 -20 -470 -14 -41
-111 -230 -215 -419 -247 -450 -285 -538 -322 -751 -15 -86 -15 -232 -1 -369
l2 -23 -165 -3 c-281 -3 -367 -28 -926 -265 -410 -174 -461 -193 -584 -211
-134 -19 -312 4 -433 56 -15 6 -17 1 -17 -37 0 -51 47 -134 157 -276 296 -385
666 -628 1059 -697 244 -42 531 -22 774 54 35 11 65 19 66 18 0 -1 -5 -47 -12
-102 -21 -158 -29 -499 -15 -670 54 -666 296 -1276 718 -1805 37 -47 134 -153
215 -235 l147 -151 -380 -318 c-208 -175 -379 -323 -379 -330 0 -38 193 -213
343 -310 382 -249 869 -309 1313 -161 174 58 378 178 538 318 l55 49 53 -12
c256 -55 686 -75 967 -46 259 28 527 88 756 170 55 20 107 36 115 36 10 0 41
-71 100 -236 47 -130 90 -239 96 -241 16 -6 147 61 219 112 70 50 197 179 244
248 91 134 150 315 159 489 l5 108 91 77 c930 793 1343 2010 1084 3198 -34
159 -109 397 -170 542 -22 54 -42 107 -43 119 -3 19 -210 392 -225 404 -3 3
-36 49 -73 102 -460 664 -1177 1145 -1972 1323 -235 52 -362 67 -645 72 -294
6 -471 -8 -700 -52 -368 -72 -741 -215 -1052 -402 -65 -39 -120 -68 -123 -65
-3 3 -5 21 -5 41 0 45 -33 195 -61 281 -60 183 -191 400 -342 570 -96 108
-176 181 -310 281 -89 67 -107 77 -107 62z m5213 -2850 c123 -289 187 -530
223 -834 22 -189 15 -526 -15 -709 -82 -506 -276 -946 -597 -1350 -94 -118
-318 -340 -444 -440 -221 -176 -533 -353 -783 -445 -234 -86 -500 -144 -755
-166 -144 -12 -428 -9 -451 5 -8 6 6 27 47 69 198 208 410 545 538 857 101
246 168 482 219 760 210 1166 852 1980 1830 2321 61 22 117 39 126 39 11 0 31
-34 62 -107z m-3508 -212 c114 -31 266 -109 362 -185 154 -123 282 -320 335
-516 31 -114 33 -337 4 -450 -110 -431 -472 -733 -906 -757 -274 -14 -518 84
-726 291 -157 158 -243 319 -279 523 -86 491 241 982 730 1096 109 25 112 26
260 22 104 -2 160 -8 220 -24z m1088 -1317 c44 -22 97 -74 97 -95 0 -10 5 -19
11 -21 5 -2 13 -22 16 -46 9 -64 -18 -123 -81 -176 -89 -77 -177 -78 -260 -4
-52 45 -71 76 -81 129 -14 76 36 168 114 209 46 24 140 26 184 4z"/>
</g>
</svg>
